<?xml version="1.0" encoding="UTF-8"?>
<svg xmlns="http://www.w3.org/2000/svg" viewBox="0 0 300 48" width="300" height="48" role="img" aria-labelledby="vardaanLogoFooterTitle">
  <title id="vardaanLogoFooterTitle">VARDAAN Hospital Jind</title>
  <defs>
    <clipPath id="vardaanHeartClipF" clipPathUnits="userSpaceOnUse">
      <path transform="translate(13 7) scale(1.2)" d="M12 21.35l-1.45-1.32C5.4 15.36 2 12.28 2 8.5 2 5.42 4.42 3 7.5 3c1.74 0 3.41.81 4.5 2.09C13.09 3.81 14.76 3 16.5 3 19.58 3 22 5.42 22 8.5c0 3.78-3.4 6.86-8.55 11.54L12 21.35z"/>
    </clipPath>
  </defs>
  <rect x="0" y="2" width="50" height="44" rx="8" fill="#0a0a0a"/>
  <path transform="translate(13 7) scale(1.2)" fill="#00aeef" d="M12 21.35l-1.45-1.32C5.4 15.36 2 12.28 2 8.5 2 5.42 4.42 3 7.5 3c1.74 0 3.41.81 4.5 2.09C13.09 3.81 14.76 3 16.5 3 19.58 3 22 5.42 22 8.5c0 3.78-3.4 6.86-8.55 11.54L12 21.35z"/>
  <g clip-path="url(#vardaanHeartClipF)">
    <path transform="translate(13 7) scale(1.2)" fill="none" stroke="#ffffff" stroke-width="1.2" stroke-linecap="round" stroke-linejoin="round"
          d="M3 12h3l1.8-5 2.2 10 2.5-9 1.8 4H19l2-2 3 2"/>
  </g>
  <text x="58" y="22" fill="#f0f0f0" font-family="system-ui, -apple-system, 'Segoe UI', Roboto, 'Helvetica Neue', Arial, sans-serif" font-size="14.5" font-weight="700" letter-spacing="-0.02em">VARDAAN Hospital Jind</text>
  <text x="58" y="38" fill="#b0b0b0" font-family="system-ui, -apple-system, 'Segoe UI', Roboto, 'Helvetica Neue', Arial, sans-serif" font-size="8.25" font-weight="600" letter-spacing="0.12em">ORTHOPEDIC CARE &#183; HARYANA, INDIA</text>
</svg>
